<svg xmlns="http://www.w3.org/2000/svg" viewBox="0 0 800 300" width="800" height="300">
  <!-- 暗色背景 -->
  <rect width="100%" height="100%" fill="#0f172a"/>
  
  <!-- 霓虹桥体 -->
  <g transform="translate(0 150)" filter="url(#neonEffect)">
    <path d="M 200 120 L 220 40 240 120" fill="url(#towerGrad)"/>
    <path d="M 600 120 L 620 40 640 120" fill="url(#towerGrad)"/>
    <rect x="100" y="120" width="600" height="15" fill="url(#deckGrad)"/>
    <path d="M 200 40 Q 400 0 600 40" stroke="#00f7ff" fill="none" stroke-width="2" opacity="0.8"/>
    <path d="M 210 55 Q 400 15 590 55" stroke="#7c3aed" fill="none" stroke-width="2" opacity="0.8"/>
  </g>

  <!-- 定义科技感特效 -->
  <defs>
    <!-- 霓虹渐变 -->
    <linearGradient id="textGrad" x1="0%" y1="0%" x2="100%" y2="0%">
      <stop offset="0%" style="stop-color:#6366f1"/>
      <stop offset="100%" style="stop-color:#00ffcc"/>
    </linearGradient>

    <!-- 桥塔渐变 -->
    <linearGradient id="towerGrad" x1="0%" y1="0%" x2="0%" y2="100%">
      <stop offset="0%" style="stop-color:#7c3aed"/>
      <stop offset="100%" style="stop-color:#2563eb"/>
    </linearGradient>

    <!-- 桥面渐变 -->
    <linearGradient id="deckGrad" x1="0%" y1="0%" x2="100%" y2="0%">
      <stop offset="0%" style="stop-color:#1e40af"/>
      <stop offset="100%" style="stop-color:#0ea5e9"/>
    </linearGradient>

    <!-- 霓虹光效 -->
    <filter id="neonEffect">
      <feGaussianBlur stdDeviation="3" result="glow"/>
      <feMerge>
        <feMergeNode in="glow"/>
        <feMergeNode in="SourceGraphic"/>
      </feMerge>
    </filter>
  </defs>

  <!-- 科技感文字 -->
  <text x="50%" y="180" font-size="50" font-weight="700" 
        text-anchor="middle" fill="url(#textGrad)" font-family="'Segoe UI', sans-serif"
        style="paint-order: stroke; stroke: #fff; stroke-width: 1;">
    AITools Bridge
  </text>

  <!-- 背景科技网格 -->
  <path d="M0 150h800M50 0v300M150 0v300M250 0v300M350 0v300M450 0v300M550 0v300M650 0v300M750 0v300" 
        stroke="#1e293b" stroke-width="0.5" opacity="0.3"/>

  <!-- 动态光效 -->
  <circle cx="120" cy="80" r="20" fill="#00ffcc" opacity="0.2">
    <animate attributeName="r" values="20;25;20" dur="3s" repeatCount="indefinite"/>
  </circle>
  <circle cx="680" cy="60" r="30" fill="#7c3aed" opacity="0.2">
    <animate attributeName="cx" values="680;670;680" dur="4s" repeatCount="indefinite"/>
  </circle>
</svg>
